HIERARCHY
ROOT Hips
{
	OFFSET 0.00 0.00 0.00
	CHANNELS 6 Xposition Yposition Zposition Xrotation Yrotation Zrotation
	JOINT RightUpLeg
	{
		OFFSET -3.69398 0.00000 0.00000
		CHANNELS 3 Xrotation Yrotation Zrotation
		JOINT RightLeg
		{
			OFFSET 0.00000 -15.79567 0.00000
			CHANNELS 3 Xrotation Yrotation Zrotation
			JOINT RightFoot
			{
				OFFSET 0.00000 -14.76699 0.00000
				CHANNELS 3 Xrotation Yrotation Zrotation
				JOINT RightToeBase
				{
					OFFSET 0.00000 -1.28446 4.79369
					CHANNELS 3 Xrotation Yrotation Zrotation
					End Site
					{
						OFFSET 0.00000 0.00000 2.95275
					}
				}
			}
		}
	}
	JOINT LeftUpLeg
	{
		OFFSET 3.69398 0.00000 0.00000
		CHANNELS 3 Xrotation Yrotation Zrotation
		JOINT LeftLeg
		{
			OFFSET 0.00000 -15.79567 0.00000
			CHANNELS 3 Xrotation Yrotation Zrotation
			JOINT LeftFoot
			{
				OFFSET 0.00000 -14.76699 0.00000
				CHANNELS 3 Xrotation Yrotation Zrotation
				JOINT LeftToeBase
				{
					OFFSET 0.00000 -1.28446 4.79369
					CHANNELS 3 Xrotation Yrotation Zrotation
					End Site
					{
						OFFSET 0.00000 0.00000 2.95275
					}
				}
			}
		}
	}
	JOINT Spine
	{
		OFFSET 0.00000 2.39296 0.00000
		CHANNELS 3 Xrotation Yrotation Zrotation
		JOINT RightShoulder
		{
			OFFSET 0.00000 13.20741 0.00000
			CHANNELS 3 Xrotation Yrotation Zrotation
			JOINT RightArm
			{
				OFFSET -8.14047 0.00000 0.00000
				CHANNELS 3 Xrotation Yrotation Zrotation
				JOINT RightForeArm
				{
					OFFSET -10.64984 0.00000 0.00000
					CHANNELS 3 Yrotation Zrotation Xrotation
					JOINT RightHand
					{
						OFFSET -8.30462 0.00000 0.00000
						CHANNELS 3 Xrotation Yrotation Zrotation
						End Site
						{
							OFFSET -3.93700 0.00000 0.00000
						}
						JOINT RightHandThumb1
						{
							OFFSET 0.00000 0.00000 0.00000
							CHANNELS 3 Xrotation Zrotation Yrotation
							End Site
							{
								OFFSET 0.00000 0.00000 3.93700
							}
						}
					}
				}
			}
		}
		JOINT LeftShoulder
		{
			OFFSET 0.00000 13.20741 0.00000
			CHANNELS 3 Xrotation Yrotation Zrotation
			JOINT LeftArm
			{
				OFFSET 8.14047 0.00000 0.00000
				CHANNELS 3 Xrotation Yrotation Zrotation
				JOINT LeftForeArm
				{
					OFFSET 10.64984 0.00000 0.00000
					CHANNELS 3 Yrotation Zrotation Xrotation
					JOINT LeftHand
					{
						OFFSET 8.30462 0.00000 0.00000
						CHANNELS 3 Xrotation Yrotation Zrotation
						End Site
						{
							OFFSET 3.93700 0.00000 0.00000
						}
						JOINT LeftHandThumb1
						{
							OFFSET 0.00000 0.00000 0.00000
							CHANNELS 3 Xrotation Zrotation Yrotation
							End Site
							{
								OFFSET 0.00000 0.00000 3.93700
							}
						}
					}
				}
			}
		}
		JOINT Head
		{
			OFFSET 0.00000 19.25010 0.00000
			CHANNELS 3 Xrotation Yrotation Zrotation
			End Site
			{
				OFFSET 0.00000 4.52755 0.00000
			}
		}
	}
}
MOTION
Frames: 9
Frame Time: 0.008333
 -1.6817 14.1505 -2.1420 45.1155 3.8501 27.0673 -125.6175 42.4729 -57.1517 109.4552 0.0000 0.0000 -21.6128 6.1791 28.3019 22.3991 0.0000 -0.0000 -36.6108 5.4535 37.0230 15.3752 0.0000 -0.0000 -26.2494 16.6994 -8.4606 7.1803 0.0000 0.0000 -36.9195 -11.9771 34.4009 -22.5497 -10.8084 -16.7903 14.6440 0.0148 51.1951 48.8932 0.0000 25.0381 32.8547 19.7529 -62.3760 32.8623 0.0000 -24.3270 -29.2658 -14.4232 62.9702 -71.9888 -61.5328 -28.4951 -16.0381 -0.0000 13.0598 -4.7261 18.6816 14.4727 33.1476 -0.0000 26.2537 -47.9245 -33.6409 37.8489
 -1.6746 14.1643 -2.1477 45.1907 3.8047 27.0907 -125.7835 42.3828 -57.0686 109.3711 -0.0000 -0.0000 -21.5309 6.2658 28.3385 22.3275 0.0000 -0.0000 -36.5966 5.3991 37.0012 15.4289 0.0000 0.0000 -26.2845 16.8078 -8.4096 7.1935 0.0000 0.0000 -36.8822 -11.9458 34.4033 -22.5718 -10.7066 -16.8111 14.6699 0.2825 51.2042 48.4835 0.0000 24.8654 32.9598 19.5011 -62.7590 32.8623 0.0000 -24.3270 -29.2769 -14.4742 62.9546 -72.0181 -61.5864 -28.6276 -16.0530 -0.0000 13.0936 -4.7085 18.6854 14.4180 33.1476 -0.0000 26.2537 -47.8675 -33.6374 37.8242
 -1.6644 14.1796 -2.1543 45.2803 3.7700 27.1537 -126.0031 42.3157 -56.9556 109.2697 0.0000 0.0000 -21.4503 6.3433 28.3488 22.3354 -0.0000 0.0000 -36.6251 5.3926 36.9417 15.4973 -0.0000 -0.0000 -26.3238 16.8822 -8.3224 7.2088 0.0000 -0.0000 -36.8417 -11.9194 34.3692 -22.6200 -10.5604 -16.8108 14.7247 0.5500 51.1912 48.0638 0.0000 24.6801 33.1529 19.3733 -63.0770 32.8623 0.0000 -24.3270 -29.2641 -14.4865 62.9769 -71.9134 -61.6447 -28.6099 -16.0545 -0.0000 13.1072 -4.7280 18.6787 14.4801 33.1476 -0.0000 26.2537 -47.8063 -33.5971 37.8177
 -1.6530 14.1971 -2.1597 45.3679 3.7157 27.2317 -126.2450 42.2336 -56.8106 109.1632 0.0000 -0.0000 -21.3684 6.4274 28.2914 22.2493 -0.0000 0.0000 -36.6347 5.4240 36.8744 15.5335 -0.0000 0.0000 -26.3560 16.9550 -8.2279 7.1881 0.0000 0.0000 -36.7931 -11.8805 34.3252 -22.7216 -10.3766 -16.7542 15.0619 0.9075 51.0661 47.8560 0.0000 24.3853 32.6136 19.1079 -62.9061 32.8623 0.0000 -24.3270 -29.2125 -14.4691 62.9896 -71.8531 -61.7134 -28.5792 -16.0236 -0.0000 13.0407 -4.7261 18.6662 14.4835 33.1476 -0.0000 26.2537 -47.6992 -33.5870 37.8644
 -1.6415 14.2161 -2.1667 45.4636 3.6615 27.3142 -126.4917 42.1510 -56.6648 109.0442 0.0000 0.0000 -21.2923 6.5105 28.3073 22.2548 -0.0000 0.0000 -36.6275 5.4208 36.7960 15.5791 -0.0000 -0.0000 -26.3944 17.0685 -8.1208 7.2099 0.0000 0.0000 -36.7411 -11.8290 34.2829 -22.8595 -10.2478 -16.7458 15.2376 1.3267 50.9888 47.4091 0.0000 24.0736 32.6368 18.8913 -63.1809 32.8623 0.0000 -24.3270 -29.1878 -14.4363 62.9889 -71.9895 -61.7122 -28.7119 -16.0681 -0.0000 13.1819 -4.6569 18.6792 14.2701 33.1476 -0.0000 26.2537 -47.6690 -33.5356 37.8597
 -1.6284 14.2371 -2.1755 45.5629 3.5920 27.4035 -126.7668 42.0485 -56.4956 108.9107 -0.0000 -0.0000 -21.1885 6.6170 28.2874 22.1756 0.0000 -0.0000 -36.6254 5.4342 36.7157 15.6324 0.0000 0.0000 -26.4342 17.1693 -7.9209 7.2201 0.0000 -0.0000 -36.6635 -11.7796 34.2417 -22.9156 -10.1480 -16.7487 15.2402 1.8401 50.9505 46.7733 0.0000 23.7634 32.8540 18.6448 -63.6622 32.8623 0.0000 -24.3270 -29.1412 -14.3952 62.9842 -71.9360 -61.7915 -28.6651 -16.0397 -0.0000 13.2241 -4.6769 18.5990 14.3863 33.1476 -0.0000 26.2537 -47.6135 -33.5088 37.9072
 -1.6145 14.2594 -2.1834 45.6630 3.5166 27.4843 -127.0409 41.9315 -56.3388 108.7725 -0.0000 0.0000 -21.0885 6.7352 28.2436 22.1752 0.0000 0.0000 -36.6081 5.4296 36.6414 15.6879 -0.0000 -0.0000 -26.4989 17.2986 -7.7357 7.3261 -0.0000 0.0000 -36.5776 -11.7386 34.2166 -23.0357 -10.0232 -16.7881 15.2135 2.2409 50.9757 46.1620 0.0000 23.4811 33.1845 18.7741 -63.7977 32.8623 0.0000 -24.3270 -29.1329 -14.4033 62.9849 -72.1082 -61.7100 -28.8846 -16.1485 -0.0000 13.5003 -4.6898 18.6788 14.3674 33.1476 -0.0000 26.2537 -47.5631 -33.4782 37.9107
 -1.5989 14.2841 -2.1920 45.7747 3.4439 27.5701 -127.3399 41.8005 -56.1876 108.6222 -0.0000 -0.0000 -20.9660 6.8763 28.2501 22.0929 -0.0000 -0.0000 -36.5945 5.4178 36.5553 15.7454 -0.0000 0.0000 -26.5781 17.4136 -7.5169 7.3653 -0.0000 0.0000 -36.4852 -11.6931 34.1952 -23.2397 -9.9011 -16.8216 15.3344 2.8053 50.9275 45.5160 0.0000 23.1888 33.3155 18.5546 -64.1665 32.8623 0.0000 -24.3270 -29.1695 -14.4831 62.9696 -71.9275 -61.6988 -28.8501 -16.1848 -0.0000 13.4122 -4.7429 18.6372 14.5538 33.1476 -0.0000 26.2537 -47.5318 -33.4182 37.9331
 -1.5812 14.3113 -2.2020 45.9054 3.3530 27.6809 -127.6825 41.6593 -55.9850 108.4469 -0.0000 0.0000 -20.8349 7.0232 28.2253 22.0269 -0.0000 0.0000 -36.5712 5.4189 36.4514 15.8037 0.0000 0.0000 -26.6702 17.5879 -7.3317 7.4920 -0.0000 -0.0000 -36.3693 -11.6592 34.1744 -23.3960 -9.7388 -16.8330 15.3169 3.3528 50.9120 44.7600 0.0000 22.8812 33.6708 18.4066 -64.6398 32.8623 0.0000 -24.3270 -29.1244 -14.4113 62.9510 -71.9559 -61.6826 -28.8484 -16.2393 -0.0000 13.4771 -4.7186 18.6308 14.4869 33.1476 -0.0000 26.2537 -47.4840 -33.3460 37.9460
